<svg xmlns="http://www.w3.org/2000/svg" width="70" height="43" viewBox="0 0 70 43" fill="#dddddd">
  <path id="Kauai" d="M10.17,1.54h1.32l0.57,0.38l0.19,0.56v0.38l-0.38,0.94v1.13l-0.75,0.75l-0.56,0.38l-1.88,-0.19l-0.75,-0.75l-1.13,-0.38l-0.38,-0.38v-0.57l0.57,-0.75l1.88,-1.51h1.32zM1.32,7.57l-0.19,-0.19l0.19,-1.13l1.13,-0.75l0.19,-0.56h0.57l-0.19,1.32l-0.94,0.38l-0.56,0.94l-0.19,0z"/>
  <path id="Honolulu" d="M32.59,12.08l-0.76,0.57v-0.19l-1.13,0.38l-0.94,-0.57l-1.88,0.19l-0.75,0.19l-0.38,-0.94l-0.57,-0.38l-0.19,-0.56l-0.57,-0.57v-0.57l-0.57,-0.38l1.88,-0.38l0.94,-1.32l0.57,-0.38l0.56,0.19l0.94,1.7h0.19l0.19,0.38l-0.19,0.38l0.19,0.56l0.75,0.57l0.19,-0.57h0.38v0.57l0.38,0.19l0.19,0.75l0.57,0.19z"/>
  <path id="Maui" d="M41.06,13.59h0.19l0.38,0.19h0.19l-0.19,-0.38l1.69,-0.38l0.75,0.19l-0.38,0.75l-1.13,0.75h-0.56l-2.26,-0.38l-2.64,0.19h-0.19l0.57,-1.51h0.19l2.64,0.19l0.56,0.19l0.19,0.19zM45.58,14.91l0.56,0.19l0.94,1.51l1.88,-0.94l1.13,0.19v0.19l1.51,0.94l1.32,0.38l0.19,0.38v0.75l-0.75,0.75l-0.94,0.38l-1.88,0.76h-1.32l-0.38,-0.19l-0.38,-2.26l-0.56,-0.19l-0.38,0.38l-1.13,-0.56l-0.75,-0.75l-0.19,-0.75l0.38,-0.75l0.19,-0.38l0.56,0zM40.68,16.61h1.32l0.75,0.56l0.38,0.56l-0.19,0.75l-1.69,0.57l-0.19,-0.75l-0.19,-0.56l-0.75,-0.75v-0.19l0.56,-0.19zM46.33,20.38l0.19,0.19l0.19,0.75l-1.51,0.38l-0.56,-0.19l0.38,-0.56l1.32,-0.57z"/>
  <path id="Hawaii" d="M59.14,40.71l-0.38,0.38l-0.75,-0.57l-1.88,-0.75l-0.38,-0.57l-0.19,-0.38l0.19,-3.01l-1.32,-3.2l-0.75,-0.75l-0.56,-0.75l0.19,-0.57l1.13,-1.13l1.32,-1.69v-0.75l-0.94,-1.32l-0.19,-0.75l0.19,-0.76l0.38,-0.19l1.13,0.19l0.38,0.57l1.7,0.75l2.07,0.38l2.26,0.94l1.51,0.94l0.75,0.94l0.19,1.51l0.94,-0.19l0.38,0.56v0.76l0.94,0.75l1.32,0.56l-0.38,0.75l-2.07,1.88l-1.7,0.94l-1.51,0.19l-1.7,1.32l-0.94,0.56l-1.32,2.45z"/>
  <path id="Kalawao" d="M40.87,13.4l-0.56,-0.19l1.32,0.19l0.19,0.38h-0.19l-0.38,-0.19h-0.19l-0.19,-0.19z"/>
</svg>
