<svg xmlns="http://www.w3.org/2000/svg" viewBox="0 0 133.447 83.7402" fill="#dddddd">
  <g transform="translate(66.7235,41.8701) scale(0.8) translate(-66.7235,-41.8701)">
    <path d="M66.748 83.74c39.453 0 66.699-31.885 66.699-41.846S106.152 0.049 66.748 0.049 0 31.885 0 41.894s27.783 41.846 66.748 41.846zm0-7.715c-32.178 0-58.203-27.246-58.203-34.131S34.57 7.764 66.748 7.764s58.154 28.32 58.154 34.131-26.123 34.131-58.154 34.131zm0-6.787c15.186 0 27.393-12.451 27.393-27.344S81.934 14.551 66.748 14.551 39.209 26.611 39.258 41.895c0.098 14.893 12.208 27.344 27.49 27.344zm0-18.262c-5.078 0-9.18-4.102-9.18-9.082s4.102-9.082 9.18-9.082 9.131 4.053 9.131 9.082-4.053 9.082-9.131 9.082z"/>
  </g>
</svg>
